<?xml version="1.0" encoding="UTF-8" standalone="no"?><!DOCTYPE svg PUBLIC "-//W3C//DTD SVG 1.1//EN" "http://www.w3.org/Graphics/SVG/1.1/DTD/svg11.dtd"><svg width="100%" height="100%" viewBox="0 0 8977 9531" version="1.1" xmlns="http://www.w3.org/2000/svg" xmlns:xlink="http://www.w3.org/1999/xlink" xml:space="preserve" xmlns:serif="http://www.serif.com/" style="fill-rule:evenodd;clip-rule:evenodd;stroke-linejoin:round;stroke-miterlimit:2;"><path d="M8568.373,1015.933c-458.388,-724.95 -1268.611,-1062.295 -2105.444,-1010.822c-257.166,13.083 -513.5,58.689 -757.722,141.522c-853.222,284.2 -1455.389,1021.828 -1729.055,1857.083c-84.894,-387.016 -276.778,-751.689 -593.572,-999.739c-342.706,-276.289 -786.244,-412.6 -1223.983,-407.834c-1246.194,-2.3 -2218.167,1219.244 -2155.75,2424.028c50.328,1523.933 918.25,2982.988 2124.367,3883.6c410.456,297.222 871.128,532.056 1365.606,647.389c107.022,21.833 162.722,-118.889 70.839,-176.222c-506.5,-299.778 -974.089,-662.389 -1380.756,-1086.056c-716.828,-733.611 -1221.439,-1687.222 -1364.667,-2702.444c-30.317,-212.783 -43.65,-426.617 -40.917,-641.123c11.145,-588.466 350.128,-1185.478 869.417,-1468.783c500.228,-271.094 1202.411,-215.194 1618.35,192.773c320.139,319.744 448.2,757.439 552.333,1198.283c-3.167,112.978 155.289,136.878 184.567,26.367c28.055,-122.55 65.389,-243.667 109.056,-361.794c203.834,-540.972 537.611,-1055.961 995.222,-1403.6c367.111,-282.022 824,-429.233 1285.166,-422.933c322.389,-0.606 662.167,67.228 922.5,215.8c584.444,319.489 797.666,988.905 761.611,1623.839c-12.556,259.8 -43.056,517.156 -96.278,770.066c-106.055,506.761 -309.778,979.828 -606,1407.661c-719.777,1028.945 -1880.222,1836.444 -2674.611,2845.889c-328.056,402.611 -626.784,841.167 -785.134,1340.667c-53.422,166.5 -95.272,337.778 -110.716,512.5c-6.656,97.111 107.239,143.167 171.961,79.111c49.833,-49.944 105.389,-115.333 151,-166.5c252.389,-293.056 540.944,-650.389 788.944,-946.945c305.444,-366.722 650.667,-696.111 1011.278,-1009.778c902.389,-782.056 1922.333,-1503.334 2502.5,-2586.222c352.222,-642.05 522.055,-1374.039 544.111,-2102.278c26.223,-580.583 -84.944,-1176.722 -404.222,-1673.505Z" style="fill:#f00;fill-rule:nonzero;"/></svg>