<svg width="780" height="1146" viewBox="0 0 780 1146" fill="none" xmlns="http://www.w3.org/2000/svg">
<path d="M666 135.245C534.237 135.245 431.869 135.245 389.727 1.46952C347.586 135.245 245.217 135.245 113.454 135.245C-18.5457 135.245 3.95432 264.745 3.95432 264.745V880.745C3.95432 880.745 -18.5457 1010.25 113.454 1010.25C245.217 1010.25 347.586 1010.25 389.727 1144.02C431.869 1010.25 534.237 1010.25 666 1010.25C798 1010.25 775.5 880.745 775.5 880.745V264.745C775.5 264.745 798 135.245 666 135.245Z" fill="white"/>
<path d="M389.5 0.745209C431.5 135.245 534 135.245 666 135.245C798 135.245 775.5 264.745 775.5 264.745V880.745C775.5 880.745 798 1010.25 666 1010.25C534 1010.25 431.5 1010.25 389.5 1144.75M389.954 1144.75C347.954 1010.25 245.454 1010.25 113.454 1010.25C-18.5457 1010.25 3.95432 880.745 3.95432 880.745V264.745C3.95432 264.745 -18.5457 135.245 113.454 135.245C245.454 135.245 347.954 135.245 389.954 0.745209" stroke="black" stroke-width="5"/>
</svg>
